<?xml version="1.0" encoding="UTF-8" standalone="no"?>
<svg
   xmlns:dc="http://purl.org/dc/elements/1.1/"
   xmlns:cc="http://creativecommons.org/ns#"
   xmlns:rdf="http://www.w3.org/1999/02/22-rdf-syntax-ns#"
   xmlns:svg="http://www.w3.org/2000/svg"
   xmlns="http://www.w3.org/2000/svg"
   xmlns:sodipodi="http://sodipodi.sourceforge.net/DTD/sodipodi-0.dtd"
   xmlns:inkscape="http://www.inkscape.org/namespaces/inkscape"
   version="1.1"
   id="svg2"
   xml:space="preserve"
   width="400"
   height="148"
   viewBox="0 0 400 148"
   sodipodi:docname="logoETESTER-1.eps"><metadata
     id="metadata8"><rdf:RDF><cc:Work
         rdf:about=""><dc:format>image/svg+xml</dc:format><dc:type
           rdf:resource="http://purl.org/dc/dcmitype/StillImage" /></cc:Work></rdf:RDF></metadata><defs
     id="defs6" /><sodipodi:namedview
     pagecolor="#ffffff"
     bordercolor="#666666"
     borderopacity="1"
     objecttolerance="10"
     gridtolerance="10"
     guidetolerance="10"
     inkscape:pageopacity="0"
     inkscape:pageshadow="2"
     inkscape:window-width="640"
     inkscape:window-height="480"
     id="namedview4" /><g
     id="g10"
     inkscape:groupmode="layer"
     inkscape:label="ink_ext_XXXXXX"
     transform="matrix(1.3333333,0,0,-1.3333333,0,148)"><g
       id="g12"
       transform="scale(0.1)"><path
         d="m 433.91,924.793 c 51.906,-0.25 96.633,-10.961 134.18,-32.125 37.543,-21.168 66.519,-51.406 86.933,-90.715 20.157,-39.055 30.364,-85.797 30.614,-140.226 V 641.316 H 342.063 317.117 c 1.762,-42.836 12.852,-75.339 33.262,-97.515 20.66,-22.426 50.016,-33.766 88.066,-34.016 7.309,0 21.039,-0.254 41.2,-0.758 19.906,-0.504 44.222,-1.007 72.945,-1.511 28.476,-0.504 59.219,-0.754 92.226,-0.754 33.008,0 66.145,0.375 99.407,1.133 13.859,25.199 24.441,52.16 31.75,80.886 7.308,28.473 11.086,58.207 11.34,89.199 -0.254,49.641 -9.579,95.879 -27.973,138.715 -18.395,43.09 -43.969,80.887 -76.727,113.391 -32.504,32.758 -70.3,58.332 -113.39,76.724 -43.09,18.4 -89.453,27.72 -139.094,27.98 -45.106,-0.26 -87.563,-8.07 -127.375,-23.44 C 262.941,995.98 227.285,974.434 195.789,946.719 164.039,919 137.957,886.621 117.547,849.578 97.1367,812.789 83.6563,772.598 77.1055,729.008 H 182.938 c 8.316,40.316 23.687,75.09 46.113,104.316 22.426,29.231 51.023,51.785 85.797,67.66 34.523,15.875 74.211,23.809 119.062,23.809"
         style="fill:#fd8d37;fill-opacity:1;fill-rule:nonzero;stroke:none"
         id="path14" /><path
         d="m 441.848,402.063 c -51.407,0.253 -96.383,10.078 -134.938,29.48 -38.551,19.402 -69.043,46.996 -91.469,82.777 -22.425,35.528 -35.277,77.86 -38.55,126.996 H 75.2148 c 4.7891,-45.355 17.2618,-87.308 37.4222,-125.863 19.906,-38.805 45.859,-72.695 77.859,-101.672 31.75,-28.98 68.035,-51.656 108.856,-68.035 40.82,-16.129 84.414,-24.316 130.777,-24.57 43.844,0.254 85.297,7.562 124.351,21.922 38.805,14.617 73.833,35.152 105.079,61.609 -30.493,-1.008 -59.848,-1.762 -88.067,-2.266 -28.222,-0.253 -53.547,-0.378 -75.972,-0.378 -22.426,0 -40.317,0 -53.672,0"
         style="fill:#fd8d37;fill-opacity:1;fill-rule:nonzero;stroke:none"
         id="path16" /><path
         d="m 438.445,826.145 c -31.246,-0.25 -56.695,-8.692 -76.351,-25.325 -19.906,-16.629 -33.008,-40.566 -39.309,-71.812 h 19.278 v -0.379 h 212.042 c -7.562,31.75 -21.167,55.937 -40.824,72.57 -19.652,16.629 -44.597,24.946 -74.836,24.946"
         style="fill:#fd8d37;fill-opacity:1;fill-rule:nonzero;stroke:none"
         id="path18" /><path
         d="m 438.445,826.145 c -31.246,-0.25 -56.695,-8.692 -76.351,-25.325 -19.906,-16.629 -33.008,-40.566 -39.309,-71.812 h 19.278 v -0.379 h 212.042 c -7.562,31.75 -21.167,55.937 -40.824,72.57 -19.652,16.629 -44.597,24.946 -74.836,24.946"
         style="fill:#fd8d37;fill-opacity:1;fill-rule:nonzero;stroke:none"
         id="path20" /><path
         d="m 316.738,641.316 h 25.325 -25.325 v 0"
         style="fill:#fd8d37;fill-opacity:1;fill-rule:nonzero;stroke:none"
         id="path22" /><path
         d="m 322.41,729.008 c 0,0 0,-0.129 0,-0.379 h 19.653 v 0.379 H 322.41"
         style="fill:#fd8d37;fill-opacity:1;fill-rule:nonzero;stroke:none"
         id="path24" /><path
         d="m 847.145,726.113 v 0 H 1163.5 l -6.12,-62.761 c 0,0 -12.75,6.636 -30.1,6.636 v 0 h -69.4 L 996.141,430.676 c 0,0 -3.575,-13.778 -3.575,-27.043 v 0 c 0,0 0,-7.656 3.575,-17.86 v 0 H 843.57 c 0,0 16.328,23.981 25.004,58.168 v 0 l 58.168,226.047 h -72.965 c 0,0 -17.859,0 -32.148,-6.125 v 0 z M 1440.07,439.348 v 0 l -21.94,-53.575 h -217.89 c 0,0 -32.65,0 -54.08,14.797 v 0 c 0,0 -24.5,16.84 -24.5,48.473 v 0 c 0,0 0,9.187 2.55,19.902 v 0 l 28.58,110.215 c 0,0 14.8,56.641 79.6,56.641 v 0 h 156.14 c 0,0 47.96,0 66.33,-15.821 v 0 c 0,0 20.41,-18.367 20.41,-46.433 v 0 c 0,0 0,-12.246 -3.06,-25.004 v 0 l -15.82,-62.25 h -205.63 l -6.12,-22.961 c 0,0 -2.05,-8.676 -2.05,-13.777 v 0 c 0,0 0,-10.715 10.21,-13.266 v 0 c 0,0 6.12,-2.043 22.45,-2.043 v 0 h 120.42 c 0,0 29.09,0 44.4,5.102 z m -176.55,95.422 v 0 h 82.66 l 7.14,28.574 c 0,0 2.04,7.14 2.04,11.222 v 0 c 0,0 0,12.758 -17.86,12.758 v 0 h -38.78 c 0,0 -14.28,0 -19.39,-4.594 v 0 c 0,0 -5.1,-4.589 -8.67,-19.386 v 0 z m 551.07,101.031 v 0 l -2.55,-57.66 c 0,0 -20.91,9.183 -61.23,9.183 v 0 h -105.62 c 0,0 -16.84,0 -16.84,-12.758 v 0 c 0,0 0,-8.671 19.39,-8.671 v 0 h 88.28 c 0,0 23.98,0 40.64,-13.61 v 0 c 0,0 16.5,-13.433 16.5,-36.906 v 0 c 0,0 0,-9.695 -4.08,-25.004 v 0 l -10.2,-38.27 c 0,0 -8.68,-35.207 -28.58,-50.003 v 0 c 0,0 -21.43,-16.329 -70.92,-16.329 v 0 h -211.76 l 5.61,56.129 c 0,0 14.8,-4.593 21.94,-5.613 v 0 c 0,0 17.86,-2.043 46.44,-2.043 v 0 h 98.48 c 0,0 18.37,0 18.37,17.859 v 0 c 0,0 0,8.165 -13.27,8.165 v 0 h -73.48 c 0,0 -41.33,0 -55.1,9.695 v 0 c 0,0 -21.95,15.308 -21.95,44.394 v 0 c 0,0 0,8.164 1.54,14.797 v 0 l 13.26,50.516 c 0,0 8.67,33.676 30.61,45.922 v 0 c 0,0 17.86,10.207 53.07,10.207 v 0 z m 289.83,0 v 0 l -12.76,-48.477 h -98.98 l -32.66,-126.543 c 0,0 -1.02,-4.082 -1.02,-7.656 v 0 c 0,0 0,-18.879 34.7,-18.879 v 0 h 32.65 c 0,0 22.45,0 42.35,7.656 v 0 l -14.28,-56.129 h -124.51 c 0,0 -48.98,0 -65.31,10.715 v 0 c 0,0 -28.06,18.879 -28.06,51.535 v 0 c 0,0 0,8.676 3.06,20.411 v 0 l 30.61,118.89 h -51.53 l 12.75,48.477 h 51.54 l 12.24,47.453 124.51,7.652 -14.29,-55.105 z m 299.01,-196.453 v 0 l -21.94,-53.575 h -217.88 c 0,0 -32.65,0 -54.09,14.797 v 0 c 0,0 -24.49,16.84 -24.49,48.473 v 0 c 0,0 0,9.187 2.55,19.902 v 0 l 28.58,110.215 c 0,0 14.8,56.641 79.6,56.641 v 0 h 156.14 c 0,0 47.96,0 66.33,-15.821 v 0 c 0,0 20.41,-18.367 20.41,-46.433 v 0 c 0,0 0,-12.246 -3.06,-25.004 v 0 l -15.82,-62.25 H 2214.13 L 2208,463.332 c 0,0 -2.04,-8.676 -2.04,-13.777 v 0 c 0,0 0,-10.715 10.21,-13.266 v 0 c 0,0 6.12,-2.043 22.45,-2.043 v 0 h 120.42 c 0,0 29.09,0 44.39,5.102 z m -176.55,95.422 v 0 h 82.67 l 7.14,28.574 c 0,0 2.04,7.14 2.04,11.222 v 0 c 0,0 0,12.758 -17.86,12.758 v 0 h -38.78 c 0,0 -14.29,0 -19.39,-4.594 v 0 c 0,0 -5.1,-4.589 -8.67,-19.386 v 0 z m 379.13,101.031 v 0 c 0,0 -0.51,-14.289 -3.06,-42.352 v 0 c 0,0 13.26,24.492 27.89,33.336 v 0 c 0,0 14.46,9.016 42.01,9.016 v 0 h 69.4 l -21.43,-81.645 c 0,0 -14.29,12.758 -41.85,12.758 v 0 h -42.86 c 0,0 -28.57,0 -33.68,-21.43 v 0 l -30.1,-114.808 c 0,0 -3.06,-12.758 -3.06,-27.043 v 0 c 0,0 0,-8.164 3.06,-17.86 v 0 h -143.89 c 0,0 16.33,23.981 25,58.168 v 0 l 38.27,146.954 c 0,0 3.06,12.246 3.06,27.046 v 0 c 0,0 0,8.164 -3.57,17.86 v 0 h 114.81"
         style="fill:#0a2972;fill-opacity:1;fill-rule:nonzero;stroke:none"
         id="path26" /><path
         d="m 1308.83,305.301 v 0 c 0,0 -3.17,0 -7.1,-1.965 v 0 c 0,0 -4.01,-1.891 -5.14,-5.063 v 0 c 0,0 4.3,2.946 9.07,2.946 v 0 c 0,0 4.08,0 7.25,-2.871 v 0 c 0,0 3.18,-2.797 3.18,-7.106 v 0 c 0,0 0,-5.441 -2.12,-9.98 v 0 c 0,0 -2.19,-4.535 -5.82,-7.86 v 0 c 0,0 -3.63,-3.25 -8.39,-5.066 v 0 c 0,0 -4.76,-1.813 -9.97,-1.813 v 0 c 0,0 -5.22,0 -9.99,1.813 v 0 c 0,0 -4.76,1.816 -8.23,5.066 v 0 c 0,0 -3.56,3.325 -5.68,7.86 v 0 c 0,0 -2.19,4.539 -2.19,9.98 v 0 c 0,0 0,9.297 3.33,17.235 v 0 c 0,0 3.25,7.937 9.07,13.683 v 0 c 0,0 5.75,5.82 13.69,9.07 v 0 c 0,0 7.93,3.329 17.23,3.329 v 0 h 98.19 v -62.368 c 0,0 0,-3.175 1.37,-5.82 v 0 c 0,0 1.36,-2.57 3.63,-4.609 v 0 c 0,0 2.26,-2.043 5.13,-3.328 v 0 c 0,0 2.8,-1.207 5.75,-1.207 v 0 l -10.2,-31.297 h -66.68 l 9.3,31.066 c 0,0 8.17,1.817 9.3,10.207 v 0 h -24.27 l -20.41,-29.707 c 0,0 -5.67,-8.164 -12.47,-15.875 v 0 c 0,0 -6.8,-7.711 -14.97,-13.836 v 0 c 0,0 -8.16,-6.121 -17.54,-9.902 v 0 c 0,0 -9.45,-3.703 -19.88,-3.703 v 0 c 0,0 -8.61,0 -15.64,3.402 v 0 c 0,0 -7.04,3.402 -12.02,9.145 v 0 c 0,0 -4.99,5.82 -7.56,13.304 v 0 c 0,0 -2.65,7.485 -2.65,15.649 v 0 c 0,0 0,7.031 2.72,14.136 v 0 c 0,0 2.72,7.18 7.49,12.926 v 0 c 0,0 4.76,5.821 11.26,9.449 v 0 c 0,0 6.42,3.629 13.91,3.629 v 0 c 0,0 9.07,0 15.35,-6.273 v 0 c 0,0 6.19,-6.199 6.19,-15.27 v 0 c 0,0 0,-7.031 -4.61,-12.699 v 0 c 0,0 -4.69,-5.672 -12.17,-5.672 v 0 c 0,0 -2.27,0 -4.54,0.758 v 0 c 0,0 -2.26,0.832 -4.08,1.965 v 0 c 0,0 -0.45,-0.68 -0.45,-2.496 v 0 c 0,0 0,-3.856 3.1,-5.82 v 0 c 0,0 3.02,-1.891 6.42,-1.891 v 0 c 0,0 6.13,0 12.63,2.797 v 0 c 0,0 6.42,2.875 12.47,7.183 v 0 c 0,0 5.97,4.309 11.11,9.524 v 0 c 0,0 5.07,5.215 8.47,9.98 v 0 l 29.71,39.914 c 0,0 1.58,2.039 1.58,3.856 v 0 c 0,0 0,2.492 -2.26,3.023 v 0 c 0,0 -2.27,0.602 -4.08,0.602 v 0 z m 53.75,-22.223 v 0 22.449 l -14.97,-22.449 z m 109.54,12.699 v 0 c 0,0 1.13,0 1.96,-1.285 v 0 c 0,0 0.76,-1.211 1.21,-2.949 v 0 c 0,0 0.46,-1.66 0.68,-3.402 v 0 c 0,0 0.23,-1.661 0.46,-2.567 v 0 c 0,0 5.89,6.121 12.17,10.051 v 0 c 0,0 6.19,4.008 15.04,4.008 v 0 c 0,0 7.25,0 11.79,-4.762 v 0 c 0,0 4.54,-4.762 4.54,-12.019 v 0 c 0,0 0,-4.082 -1.44,-7.938 v 0 c 0,0 -1.51,-3.855 -4.01,-6.805 v 0 c 0,0 -2.49,-2.949 -6.12,-4.761 v 0 c 0,0 -3.63,-1.813 -7.94,-1.813 v 0 c 0,0 -4.08,0 -6.57,1.813 v 0 c 0,0 -2.5,1.812 -4.16,3.855 v 0 c 0,0 -1.74,2.039 -3.1,3.856 v 0 c 0,0 -1.36,1.812 -2.95,1.812 v 0 c 0,0 -3.4,0 -5.97,-2.719 v 0 c 0,0 -2.64,-2.722 -4.53,-6.504 v 0 c 0,0 -1.97,-3.703 -3.33,-7.707 v 0 c 0,0 -1.36,-3.933 -2.27,-6.425 v 0 l -7.71,-23.586 h -40.14 l 19.73,60.097 c 0,0 0.68,2.039 0.68,4.309 v 0 c 0,0 0,2.719 -0.68,5.441 v 0 z m 92.52,-47.172 v 0 c 0,0 2.72,0 5.22,1.59 v 0 c 0,0 2.5,1.586 3.85,3.856 v 0 h 33.57 c 0,0 -2.04,-7.938 -7.03,-13.758 v 0 c 0,0 -4.99,-5.746 -11.57,-9.602 v 0 c 0,0 -6.57,-3.855 -14.36,-5.82 v 0 c 0,0 -7.86,-1.891 -15.35,-1.891 v 0 c 0,0 -6.57,0 -13.68,1.586 v 0 c 0,0 -7.18,1.59 -12.93,5.219 v 0 c 0,0 -5.82,3.629 -9.52,9.145 v 0 c 0,0 -3.78,5.593 -3.78,13.531 v 0 c 0,0 0,5.219 1.36,10.281 v 0 c 0,0 1.36,5.141 3.86,9.676 v 0 c 0,0 3.85,7.031 9.45,12.246 v 0 c 0,0 5.52,5.219 12.24,8.695 v 0 c 0,0 6.66,3.551 14.29,5.215 v 0 c 0,0 7.56,1.739 15.27,1.739 v 0 c 0,0 5.67,0 12.25,-1.286 v 0 c 0,0 6.57,-1.207 12.02,-4.082 v 0 c 0,0 5.44,-2.797 9.07,-7.711 v 0 c 0,0 3.63,-4.836 3.63,-12.093 v 0 c 0,0 0,-5.215 -2.12,-8.391 v 0 c 0,0 -2.19,-3.176 -5.82,-4.762 v 0 c 0,0 -3.63,-1.59 -8.24,-2.043 v 0 c 0,0 -4.69,-0.453 -9.68,-0.453 v 0 h -13.6 c 0,0 -5.9,0 -9.99,-1.058 v 0 c 0,0 -4.08,-0.981 -4.08,-4.836 v 0 c 0,0 0,-2.496 1.82,-3.782 v 0 c 0,0 1.81,-1.211 3.85,-1.211 z m 9.07,31.75 v 0 c 0,0 -3.85,0 -6.19,-3.628 v 0 c 0,0 -2.42,-3.629 -3.1,-6.801 v 0 h 4.76 c 0,0 2.5,0 5.89,1.433 v 0 c 0,0 3.41,1.512 3.41,4.688 v 0 c 0,0 0,1.816 -1.36,3.023 v 0 c 0,0 -1.36,1.285 -3.41,1.285 z m 197.76,15.422 v 0 l -24.04,-75.066 c 0,0 -5.89,-18.594 -19.8,-28.043 v 0 c 0,0 -13.99,-9.375 -33.49,-9.375 v 0 c 0,0 -4.76,0 -10.89,1.211 v 0 c 0,0 -6.12,1.285 -11.57,3.855 v 0 c 0,0 -5.44,2.645 -9.29,6.801 v 0 c 0,0 -3.86,4.235 -3.86,10.133 v 0 c 0,0 0,3.855 1.74,6.879 v 0 c 0,0 1.66,3.098 4.39,5.215 v 0 c 0,0 2.72,2.191 6.12,3.324 v 0 c 0,0 3.4,1.137 6.8,1.137 v 0 c 0,0 2.49,0 5.6,-0.68 v 0 c 0,0 3.02,-0.684 5.66,-2.195 v 0 c 0,0 2.57,-1.434 4.39,-3.93 v 0 c 0,0 1.81,-2.496 1.81,-5.895 v 0 c 0,0 0.46,-0.226 1.82,-0.226 v 0 c 0,0 3.4,0 5.89,2.57 v 0 c 0,0 2.5,2.645 4.46,6.274 v 0 c 0,0 1.9,3.629 3.18,7.484 v 0 c 0,0 1.21,3.855 1.89,6.121 v 0 c 0,0 -10.66,-6.805 -22.9,-6.805 v 0 c 0,0 -4.54,0 -8.93,1.364 v 0 c 0,0 -4.46,1.359 -7.86,4.082 v 0 c 0,0 -3.4,2.718 -5.44,6.574 v 0 c 0,0 -2.04,3.855 -2.04,8.848 v 0 c 0,0 0,3.625 0.91,7.105 v 0 c 0,0 0.9,3.551 2.03,6.953 v 0 l 7.72,26.535 c 0,0 0.68,2.039 0.68,4.309 v 0 c 0,0 0,2.719 -0.68,5.441 v 0 h 42.63 l -10.88,-34.468 c 0,0 -0.46,-0.684 -0.46,-1.516 v 0 c 0,0 0,-0.754 0,-1.434 v 0 c 0,0 0,-1.816 0.91,-4.007 v 0 c 0,0 0.91,-2.118 3.17,-2.118 v 0 c 0,0 2.27,0 4.09,1.364 v 0 c 0,0 1.81,1.359 3.17,3.25 v 0 c 0,0 1.36,1.965 2.27,4.23 v 0 c 0,0 0.91,2.27 1.59,4.082 v 0 l 10.2,30.617 z m 37.19,-73.25 v 0 c 0,0 -6.57,0 -13.83,1.664 v 0 c 0,0 -7.26,1.739 -13.23,5.215 v 0 c 0,0 -6.05,3.551 -9.9,9.223 v 0 c 0,0 -3.86,5.668 -3.86,13.605 v 0 c 0,0 0,11.567 4.54,20.411 v 0 c 0,0 4.53,8.847 12.17,14.968 v 0 c 0,0 7.56,6.125 17.46,9.149 v 0 c 0,0 9.83,3.097 20.49,3.097 v 0 c 0,0 6.8,0 13.83,-1.964 v 0 c 0,0 7.03,-1.891 12.92,-5.668 v 0 c 0,0 5.9,-3.707 9.68,-9.602 v 0 c 0,0 3.71,-5.898 3.71,-13.609 v 0 c 0,0 0,-11.336 -4.54,-19.957 v 0 c 0,0 -4.54,-8.618 -12.02,-14.512 v 0 c 0,0 -7.48,-5.899 -17.24,-8.996 v 0 c 0,0 -9.75,-3.024 -20.18,-3.024 z m 4.08,29.934 v 0 c 0,0 2.27,0 4.31,1.437 v 0 c 0,0 2.04,1.512 3.63,3.629 v 0 c 0,0 1.59,2.192 2.42,4.762 v 0 c 0,0 0.76,2.645 0.76,4.688 v 0 c 0,0 0,2.496 -1.14,4.082 v 0 c 0,0 -1.13,1.586 -3.85,1.586 v 0 c 0,0 -2.5,0 -4.39,-1.512 v 0 c 0,0 -1.96,-1.434 -3.55,-3.629 v 0 c 0,0 -1.59,-2.113 -2.34,-4.762 v 0 c 0,0 -0.84,-2.57 -0.84,-4.609 v 0 c 0,0 0,-2.496 1.14,-4.082 v 0 c 0,0 1.13,-1.59 3.85,-1.59 z m 159.43,43.316 v 0 l -12.02,-36.964 c 0,0 -0.68,-2.043 -0.68,-4.083 v 0 c 0,0 0,-0.679 0.23,-1.738 v 0 c 0,0 0.23,-0.984 1.13,-0.984 v 0 c 0,0 0.91,0 1.97,1.363 v 0 c 0,0 0.98,1.359 1.89,3.25 v 0 c 0,0 0.9,1.965 1.58,3.629 v 0 c 0,0 0.68,1.738 1.14,2.418 v 0 h 11.11 c 0,0 -1.59,-6.578 -4.38,-13.758 v 0 c 0,0 -2.88,-7.105 -7.19,-13.004 v 0 c 0,0 -4.31,-5.894 -10.27,-9.676 v 0 c 0,0 -6.05,-3.703 -14.22,-3.703 v 0 c 0,0 -6.57,0 -11.79,3.176 v 0 c 0,0 -5.22,3.172 -7.94,9.07 v 0 c 0,0 -5.89,-6.125 -13.91,-9.523 v 0 c 0,0 -8.09,-3.402 -16.48,-3.402 v 0 c 0,0 -4.53,0 -8.92,1.359 v 0 c 0,0 -4.46,1.359 -7.86,4.082 v 0 c 0,0 -3.4,2.723 -5.44,6.578 v 0 c 0,0 -2.04,3.856 -2.04,8.844 v 0 c 0,0 0,3.629 0.9,7.105 v 0 c 0,0 0.91,3.555 2.05,6.954 v 0 l 8.61,29.257 c 0,0 0.68,2.039 0.68,4.309 v 0 c 0,0 0,2.719 -0.68,5.441 v 0 h 42.64 l -11.8,-37.191 c 0,0 -0.45,-0.68 -0.45,-1.512 v 0 c 0,0 0,-0.758 0,-1.437 v 0 c 0,0 0,-1.813 0.91,-4.008 v 0 c 0,0 0.91,-2.113 3.17,-2.113 v 0 c 0,0 2.27,0 4.24,1.359 v 0 c 0,0 1.89,1.359 3.25,3.25 v 0 c 0,0 1.36,1.965 2.27,4.234 v 0 c 0,0 0.9,2.266 1.58,4.082 v 0 l 10.66,33.336 z m 107.04,0 v 0 c 0,0 1.14,0 1.97,-1.285 v 0 c 0,0 0.75,-1.211 1.21,-2.949 v 0 c 0,0 0.45,-1.66 0.68,-3.402 v 0 c 0,0 0.22,-1.661 0.45,-2.567 v 0 c 0,0 5.9,6.121 12.17,10.051 v 0 c 0,0 6.2,4.008 15.04,4.008 v 0 c 0,0 7.26,0 11.8,-4.762 v 0 c 0,0 4.53,-4.762 4.53,-12.019 v 0 c 0,0 0,-4.082 -1.43,-7.938 v 0 c 0,0 -1.52,-3.855 -4.01,-6.805 v 0 c 0,0 -2.49,-2.949 -6.12,-4.761 v 0 c 0,0 -3.63,-1.813 -7.94,-1.813 v 0 c 0,0 -4.08,0 -6.58,1.813 v 0 c 0,0 -2.49,1.812 -4.16,3.855 v 0 c 0,0 -1.73,2.039 -3.09,3.856 v 0 c 0,0 -1.37,1.812 -2.95,1.812 v 0 c 0,0 -3.4,0 -5.98,-2.719 v 0 c 0,0 -2.64,-2.722 -4.53,-6.504 v 0 c 0,0 -1.97,-3.703 -3.32,-7.707 v 0 c 0,0 -1.37,-3.933 -2.27,-6.425 v 0 l -7.72,-23.586 h -40.14 l 19.73,60.097 c 0,0 0.68,2.039 0.68,4.309 v 0 c 0,0 0,2.719 -0.68,5.441 v 0 z m 92.53,-47.172 v 0 c 0,0 2.72,0 5.21,1.59 v 0 c 0,0 2.5,1.586 3.86,3.856 v 0 h 33.57 c 0,0 -2.05,-7.938 -7.04,-13.758 v 0 c 0,0 -4.98,-5.746 -11.56,-9.602 v 0 c 0,0 -6.58,-3.855 -14.37,-5.82 v 0 c 0,0 -7.86,-1.891 -15.34,-1.891 v 0 c 0,0 -6.58,0 -13.68,1.586 v 0 c 0,0 -7.18,1.59 -12.93,5.219 v 0 c 0,0 -5.82,3.629 -9.53,9.145 v 0 c 0,0 -3.77,5.593 -3.77,13.531 v 0 c 0,0 0,5.219 1.36,10.281 v 0 c 0,0 1.36,5.141 3.85,9.676 v 0 c 0,0 3.86,7.031 9.45,12.246 v 0 c 0,0 5.52,5.219 12.25,8.695 v 0 c 0,0 6.65,3.551 14.29,5.215 v 0 c 0,0 7.55,1.739 15.27,1.739 v 0 c 0,0 5.66,0 12.24,-1.286 v 0 c 0,0 6.58,-1.207 12.02,-4.082 v 0 c 0,0 5.44,-2.797 9.07,-7.711 v 0 c 0,0 3.63,-4.836 3.63,-12.093 v 0 c 0,0 0,-5.215 -2.12,-8.391 v 0 c 0,0 -2.19,-3.176 -5.82,-4.762 v 0 c 0,0 -3.63,-1.59 -8.24,-2.043 v 0 c 0,0 -4.68,-0.453 -9.67,-0.453 v 0 h -13.61 c 0,0 -5.9,0 -9.98,-1.058 v 0 c 0,0 -4.08,-0.981 -4.08,-4.836 v 0 c 0,0 0,-2.496 1.81,-3.782 v 0 c 0,0 1.82,-1.211 3.86,-1.211 z m 9.07,31.75 v 0 c 0,0 -3.86,0 -6.2,-3.628 v 0 c 0,0 -2.42,-3.629 -3.1,-6.801 v 0 h 4.76 c 0,0 2.5,0 5.9,1.433 v 0 c 0,0 3.4,1.512 3.4,4.688 v 0 c 0,0 0,1.816 -1.36,3.023 v 0 c 0,0 -1.36,1.285 -3.4,1.285 z m 109.76,15.422 v 0 h 35.83 l -12.02,-36.964 c 0,0 -0.68,-2.043 -0.68,-4.083 v 0 c 0,0 0,-0.679 0.23,-1.738 v 0 c 0,0 0.23,-0.984 1.36,-0.984 v 0 c 0,0 0.68,0 1.74,1.363 v 0 c 0,0 0.98,1.359 2.04,3.25 v 0 c 0,0 0.98,1.965 1.66,3.629 v 0 c 0,0 0.68,1.738 1.14,2.418 v 0 h 10.88 c 0,0 -1.58,-6.578 -4.38,-13.758 v 0 c 0,0 -2.87,-7.105 -7.18,-13.004 v 0 c 0,0 -4.31,-5.894 -10.28,-9.676 v 0 c 0,0 -6.05,-3.703 -14.21,-3.703 v 0 c 0,0 -6.58,0 -11.42,3.856 v 0 c 0,0 -4.91,3.855 -7.41,9.75 v 0 c 0,0 -5.67,-5.895 -12.92,-9.449 v 0 c 0,0 -7.26,-3.477 -15.43,-3.477 v 0 c 0,0 -13.15,0 -20.18,8.164 v 0 c 0,0 -7.03,8.164 -7.03,20.863 v 0 c 0,0 0,9.075 3.33,17.465 v 0 c 0,0 3.25,8.391 9.07,14.817 v 0 c 0,0 5.74,6.5 13.68,10.355 v 0 c 0,0 7.94,3.856 17.46,3.856 v 0 c 0,0 6.58,0 12.63,-2.192 v 0 c 0,0 5.97,-2.117 9.82,-7.562 v 0 z m -22.45,-44.902 v 0 c 0,0 2.04,0 3.78,1.664 v 0 c 0,0 1.66,1.738 2.95,4.004 v 0 c 0,0 1.21,2.27 1.89,4.766 v 0 c 0,0 0.68,2.492 0.68,4.308 v 0 c 0,0 0,1.813 -0.68,3.25 v 0 c 0,0 -0.68,1.512 -2.95,1.512 v 0 c 0,0 -2.04,0 -3.7,-1.59 v 0 c 0,0 -1.74,-1.586 -2.95,-3.855 v 0 c 0,0 -1.29,-2.266 -1.82,-4.762 v 0 c 0,0 -0.6,-2.492 -0.6,-4.309 v 0 c 0,0 0,-1.812 0.68,-3.402 v 0 c 0,0 0.68,-1.586 2.72,-1.586 z m 144.92,83.684 v 0 h 38.77 l -24.94,-75.746 c 0,0 -0.68,-2.043 -0.68,-4.083 v 0 c 0,0 0,-0.679 0.22,-1.738 v 0 c 0,0 0.23,-0.984 1.37,-0.984 v 0 c 0,0 0.68,0 1.74,1.363 v 0 c 0,0 0.98,1.359 2.03,3.25 v 0 c 0,0 0.99,1.965 1.67,3.629 v 0 c 0,0 0.68,1.738 1.13,2.418 v 0 h 10.89 c 0,0 -1.59,-6.578 -4.39,-13.758 v 0 c 0,0 -2.87,-7.105 -7.18,-13.004 v 0 c 0,0 -4.31,-5.894 -10.28,-9.676 v 0 c 0,0 -6.05,-3.703 -14.21,-3.703 v 0 c 0,0 -6.58,0 -11.57,3.93 v 0 c 0,0 -4.98,4.008 -7.48,10.129 v 0 c 0,0 -5.67,-6.121 -13,-9.75 v 0 c 0,0 -7.41,-3.629 -15.8,-3.629 v 0 c 0,0 -13.15,0 -20.19,8.164 v 0 c 0,0 -7.03,8.164 -7.03,20.863 v 0 c 0,0 0,9.075 3.33,17.465 v 0 c 0,0 3.25,8.391 9.07,14.817 v 0 c 0,0 5.75,6.5 13.69,10.355 v 0 c 0,0 7.93,3.856 17.46,3.856 v 0 c 0,0 5.89,0 11.49,-1.739 v 0 c 0,0 5.51,-1.664 9.37,-6.199 v 0 z m -33.11,-83.684 v 0 c 0,0 2.03,0 3.77,1.664 v 0 c 0,0 1.67,1.738 2.95,4.004 v 0 c 0,0 1.21,2.27 1.89,4.766 v 0 c 0,0 0.68,2.492 0.68,4.308 v 0 c 0,0 0,1.813 -0.68,3.25 v 0 c 0,0 -0.68,1.512 -2.95,1.512 v 0 c 0,0 -2.04,0 -3.7,-1.59 v 0 c 0,0 -1.74,-1.586 -2.95,-3.855 v 0 c 0,0 -1.28,-2.266 -1.81,-4.762 v 0 c 0,0 -0.61,-2.492 -0.61,-4.309 v 0 c 0,0 0,-1.812 0.68,-3.402 v 0 c 0,0 0.68,-1.586 2.73,-1.586 z m 175.75,44.902 v 0 l -24.04,-75.066 c 0,0 -5.89,-18.594 -19.8,-28.043 v 0 c 0,0 -13.99,-9.375 -33.49,-9.375 v 0 c 0,0 -4.76,0 -10.89,1.211 v 0 c 0,0 -6.12,1.285 -11.56,3.855 v 0 c 0,0 -5.45,2.645 -9.3,6.801 v 0 c 0,0 -3.86,4.235 -3.86,10.133 v 0 c 0,0 0,3.855 1.74,6.879 v 0 c 0,0 1.66,3.098 4.39,5.215 v 0 c 0,0 2.72,2.191 6.12,3.324 v 0 c 0,0 3.4,1.137 6.8,1.137 v 0 c 0,0 2.5,0 5.6,-0.68 v 0 c 0,0 3.02,-0.684 5.66,-2.195 v 0 c 0,0 2.58,-1.434 4.39,-3.93 v 0 c 0,0 1.81,-2.496 1.81,-5.895 v 0 c 0,0 0.46,-0.226 1.82,-0.226 v 0 c 0,0 3.4,0 5.89,2.57 v 0 c 0,0 2.5,2.645 4.47,6.274 v 0 c 0,0 1.89,3.629 3.17,7.484 v 0 c 0,0 1.21,3.855 1.89,6.121 v 0 c 0,0 -10.66,-6.805 -22.9,-6.805 v 0 c 0,0 -4.54,0 -8.93,1.364 v 0 c 0,0 -4.45,1.359 -7.86,4.082 v 0 c 0,0 -3.4,2.718 -5.44,6.574 v 0 c 0,0 -2.04,3.855 -2.04,8.848 v 0 c 0,0 0,3.625 0.91,7.105 v 0 c 0,0 0.9,3.551 2.04,6.953 v 0 l 7.71,26.535 c 0,0 0.68,2.039 0.68,4.309 v 0 c 0,0 0,2.719 -0.68,5.441 v 0 h 42.63 l -10.88,-34.468 c 0,0 -0.46,-0.684 -0.46,-1.516 v 0 c 0,0 0,-0.754 0,-1.434 v 0 c 0,0 0,-1.816 0.91,-4.007 v 0 c 0,0 0.91,-2.118 3.18,-2.118 v 0 c 0,0 2.27,0 4.08,1.364 v 0 c 0,0 1.81,1.359 3.17,3.25 v 0 c 0,0 1.36,1.965 2.27,4.23 v 0 c 0,0 0.91,2.27 1.59,4.082 v 0 l 10.21,30.617 z m 18.37,-37.418 v 0 c 0,0 -0.91,2.493 -0.91,5.668 v 0 c 0,0 0,6.578 4.01,12.778 v 0 c 0,0 3.93,6.273 8.69,11.793 v 0 c 0,0 4.77,5.593 8.77,9.976 v 0 c 0,0 3.93,4.461 3.93,7.637 v 0 c 0,0 0,2.945 -2.57,3.703 v 0 c 0,0 -2.64,0.832 -4.91,0.832 v 0 c 0,0 -2.5,0 -3.7,-1.137 v 0 c 0,0 -1.29,-1.132 -2.2,-3.171 v 0 c 0,0 -3.62,-8.844 -9.07,-13.383 v 0 c 0,0 -5.44,-4.535 -14.29,-4.535 v 0 c 0,0 -5.89,0 -10.5,3.855 v 0 c 0,0 -4.69,3.855 -4.69,9.98 v 0 c 0,0 0,11.11 6.35,18.141 v 0 c 0,0 6.35,7.031 15.57,11.113 v 0 c 0,0 9.15,4.082 19.73,5.52 v 0 c 0,0 10.51,1.512 18.67,1.512 v 0 c 0,0 6.12,0 13.31,-1.137 v 0 c 0,0 7.1,-1.133 13.38,-4.082 v 0 c 0,0 6.2,-2.945 10.28,-8.086 v 0 c 0,0 4.08,-5.066 4.08,-12.777 v 0 c 0,0 0,-9.75 -3.85,-15.875 v 0 c 0,0 -3.86,-6.121 -9.75,-10.129 v 0 c 0,0 -5.9,-3.93 -13.16,-6.578 v 0 c 0,0 -7.26,-2.567 -14.13,-5.289 v 0 c 0,0 -6.96,-2.723 -12.48,-6.5 v 0 c 0,0 -5.59,-3.708 -8.31,-9.829 v 0 z m 20.86,-17.007 v 0 c 0,0 0,-3.629 -1.89,-6.504 v 0 c 0,0 -1.96,-2.797 -4.76,-4.836 v 0 c 0,0 -2.87,-2.043 -6.35,-3.102 v 0 c 0,0 -3.55,-0.98 -6.73,-0.98 v 0 c 0,0 -5.89,0 -10.66,3.402 v 0 c 0,0 -4.76,3.398 -4.76,9.75 v 0 c 0,0 0,3.629 1.97,6.352 v 0 c 0,0 1.89,2.718 4.84,4.609 v 0 c 0,0 2.95,1.965 6.5,2.871 v 0 c 0,0 3.47,0.91 6.65,0.91 v 0 c 0,0 5.67,0 10.43,-3.101 v 0 c 0,0 4.76,-3.024 4.76,-9.371 v 0"
         style="fill:#fd8342;fill-opacity:1;fill-rule:nonzero;stroke:none"
         id="path28" /></g></g></svg>
